<?xml version="1.0" encoding="UTF-8"?>
<!-- Variante clara para fondos oscuros (footer, nav del aula). -->
<svg id="Capa_1" data-name="Capa 1" xmlns="http://www.w3.org/2000/svg" viewBox="0 0 420.841 463.678">
  <defs>
    <style>
      .cls-1 { fill: #d8552a; }
      .cls-2 { fill: #F2EAD7; }
    </style>
  </defs>
  <polygon class="cls-2" points="7.147 313.757 7.9 313.757 8.147 356.774 7.147 356.774 7.147 313.757"/>
  <polygon class="cls-2" points="7.147 356.774 12.328 356.774 11.736 356.417 8.474 356.483 7.407 356.458 7.159 356.665 7.147 356.774"/>
  <polygon class="cls-2" points="7.147 313.757 .05 313.757 .05 356.774 8.147 356.774 7.147 313.757"/>
  <g>
    <path class="cls-2" d="M290.306,427.925l8.151-.003c-.025-.067-.061-.13-.084-.198-.049-.147-.072-.302-.112-.452-1.456-1.687-2.527-3.828-3.166-6.072-1.015-1.161-1.904-2.449-2.69-3.649-1.361-2.077-2.371-4.215-3.031-6.418-.313.309-.614.626-.876.968-.408.534-.714,1.177-.944,1.892,3.453.997,6.371,4.93,4.287,9.159-.743,1.508-1.193,3.123-1.535,4.771Z"/>
    <path class="cls-2" d="M387.991,313.777l-61.771-.01-.065-76.463-42.812.435-.018,76.067-122.771-.198c58.201-50.339,77.81-130.448,49.27-202.041C183.212,44.808,116.795-.703,44.199.008l.135,42.807c75.557.092,135.666,61.538,135.527,135.723-.139,74.352-60.981,135.832-136.565,135.193l-32.327-.273c-.24.025-.487.038-.743.038-.055,0-.107-.007-.161-.008-.177.016-.348.041-.535.041-.019,0-.036-.002-.054-.003-.193.032-.378.076-.58.095-.376.065-.769.107-1.189.107-.04,0-.076-.005-.115-.006l-.089,42.945,275.832-.052-.075,43.764c2.361-1.71,4.938-3.132,7.436-4.635,1.191-2.338,2.942-4.332,5.425-4.964.109-.933.38-1.846.847-2.717,1.969-3.674,6.879-3.818,9.72-1.253,1.323,1.195,2.098,2.432,2.461,3.679,2.196-.295,4.293.325,6.071,1.88.457-.058.919-.109,1.414-.111,2.078-.008,4.376,1.16,5.344,3.065,1.208,2.379,1.401,4.726.813,6.772.609.671,1.049,1.517,1.203,2.564.335,2.28.262,4.559-.501,6.474.984,1.198,1.861,2.445,2.668,3.724l.061-58.084,61.78-.114-.011-42.884Z"/>
    <path class="cls-2" d="M316.04,422.399c.703,1.818,1.002,3.723.717,5.516h2.574c-.838-1.963-1.782-3.864-2.898-5.637-.13.045-.26.088-.393.122Z"/>
  </g>
  <rect class="cls-2" x="278.913" y="233.31" width="47.572" height="80.426"/>
  <polygon class="cls-2" points="388.002 356.66 418.738 356.774 418.738 313.757 387.614 313.757 388.002 356.66"/>
  <polygon class="cls-2" points="8.246 356.774 103.561 356.774 129.844 356.774 154.002 356.774 179.518 356.774 207.159 356.774 232.325 356.774 269.91 356.774 277.309 356.774 277.237 356.018 252.383 353.094 185.526 354.474 114.069 354.523 8.116 356.15 8.017 356.281 7.886 356.363 7.902 356.626 7.967 356.764 8.246 356.774"/>
  <polyline class="cls-2" points="274.76 356.771 277.313 356.774 277.311 356.61 277.237 356.583 277.209 356.703 276.605 356.652 275.336 356.618 275.031 356.767"/>
  <polygon class="cls-2" points="0 313.795 0 356.893 35.859 356.893 55.185 356.893 73.908 356.893 83.028 356.893 95.926 356.893 107.517 356.893 126.903 356.893 140.785 356.893 154.466 356.893 172.486 356.893 194.464 356.893 209.711 356.893 232.894 356.893 248.865 356.893 262.245 356.893 278.316 356.893 278.096 355.701 162.643 342.964 49.661 313.795 .428 313.795 0 313.795"/>
  <polygon class="cls-2" points="320.464 313.795 418.738 313.757 418.738 356.774 311.624 356.893 320.464 313.795"/>
  <g>
    <path class="cls-1" d="M332.164,410.442l-25.652,53.236-27.986-53.409-4.74-209.381,39.486-.197,14.443.356,4.449,209.395ZM309.633,429.158l9.748-21.9c1.773-8.292-7.413-14.631-14.312-14.562-7.61.077-16.224,6.348-14.061,14.578l11.218,22.694c.814,1.648,6.342,1.58,7.406-.811Z"/>
    <path class="cls-1" d="M325.914,157.498l1.255,32.336-53.849-.491-.365-28.093c-.05-3.816.592-6.788,2.773-9.429,2.449-2.965,5.722-3.979,9.843-3.956l26.575.147c5.585.031,13.5,2.621,13.766,9.487Z"/>
  </g>
</svg>
