<?xml version="1.0" encoding="UTF-8"?>
<svg id="Capa_1" data-name="Capa 1" xmlns="http://www.w3.org/2000/svg" viewBox="0 0 509.174 403.971">
  <defs>
    <style>
      .cls-1 {
        letter-spacing: -.008em;
      }

      .cls-2 {
        fill: #1b1f3b;
      }

      .cls-3 {
        letter-spacing: -.045em;
      }

      .cls-4 {
        fill: #fff;
      }

      .cls-5 {
        fill: #d8552a;
      }

      .cls-6 {
        letter-spacing: -.003em;
      }

      .cls-7 {
        font-family: Fraunces72ptSuperSoft-Regular, 'Fraunces 72pt SuperSoft';
        font-size: 33.032px;
      }

      .cls-7, .cls-8 {
        fill: #131b3d;
      }
    </style>
  </defs>
  <polygon class="cls-8" points="5.733 253.492 6.342 253.492 6.541 288.246 5.733 288.246 5.733 253.492"/>
  <polygon class="cls-2" points="5.733 288.246 9.919 288.246 9.441 287.958 6.806 288.012 5.943 287.992 5.743 288.158 5.733 288.246"/>
  <g>
    <path class="cls-8" d="M234.504,345.731l6.586-.003c-.02-.055-.049-.105-.068-.16-.04-.119-.058-.244-.091-.365-1.177-1.363-2.042-3.093-2.558-4.905-.82-.938-1.538-1.978-2.173-2.948-1.099-1.678-1.915-3.406-2.449-5.185-.253.25-.496.506-.707.782-.33.432-.577.951-.763,1.528,2.789.806,5.147,3.983,3.463,7.4-.6,1.218-.964,2.523-1.24,3.855Z"/>
    <path class="cls-8" d="M313.427,253.508l-49.906-.008-.052-61.776-34.589.351-.015,61.456-99.19-.16c47.022-40.67,62.865-105.393,39.806-163.234C147.981,36.201,94.321-.568,35.669.007l.109,34.585c61.044.075,109.608,49.718,109.495,109.654-.112,60.071-49.268,109.742-110.334,109.226l-26.118-.221c-.194.02-.393.031-.6.031-.045,0-.086-.005-.13-.006-.143.013-.281.033-.432.033-.015,0-.029-.002-.044-.002-.156.026-.305.061-.469.077-.304.053-.621.086-.961.086-.032,0-.061-.004-.093-.005l-.072,34.697,222.852-.042-.061,35.358c1.908-1.381,3.99-2.531,6.008-3.745.962-1.889,2.377-3.5,4.383-4.011.088-.754.307-1.491.684-2.195,1.591-2.969,5.558-3.085,7.853-1.012,1.069.965,1.695,1.965,1.989,2.972,1.775-.239,3.468.263,4.905,1.519.369-.047.743-.088,1.142-.09,1.679-.006,3.536.937,4.317,2.476.976,1.922,1.132,3.818.657,5.471.492.542.848,1.225.972,2.071.271,1.842.212,3.683-.404,5.231.795.968,1.503,1.975,2.155,3.009l.05-46.927,49.914-.092-.009-34.647Z"/>
    <path class="cls-8" d="M255.296,341.266c.568,1.468.809,3.008.579,4.456h2.08c-.677-1.586-1.439-3.122-2.342-4.555-.105.036-.21.071-.318.098Z"/>
  </g>
  <rect class="cls-4" x="225.3" y="188.497" width="38.435" height="64.978"/>
  <g>
    <path class="cls-5" d="M268.323,331.607l-20.725,43.01-22.611-43.151-3.829-169.164,31.901-.159,11.669.288,3.594,169.176ZM250.12,346.727l7.876-17.693c1.432-6.699-5.989-11.821-11.563-11.765-6.149.062-13.108,5.129-11.36,11.778l9.064,18.335c.658,1.331,5.124,1.276,5.984-.655Z"/>
    <path class="cls-5" d="M263.274,127.246l1.014,26.125-43.506-.397-.295-22.697c-.04-3.083.478-5.484,2.241-7.618,1.978-2.395,4.623-3.214,7.953-3.196l21.47.118c4.512.025,10.907,2.118,11.122,7.665Z"/>
  </g>
  <text class="cls-7" transform="translate(.49 316.915)"><tspan x="0" y="0">VO</tspan><tspan class="cls-6" x="47.499" y="0">C</tspan><tspan class="cls-3" x="69.25" y="0">A</tspan><tspan x="90.325" y="0" xml:space="preserve">TIONAL         </tspan><tspan class="cls-1" x="274.584" y="0">L</tspan><tspan x="293.593" y="0">AB</tspan></text>
  <polygon class="cls-8" points="313.436 288.155 338.268 288.246 338.268 253.492 313.122 253.492 313.436 288.155"/>
  <polygon class="cls-8" points="5.733 253.492 0 253.492 0 288.246 6.541 288.246 5.733 253.492"/>
</svg>
