<?xml version="1.0" encoding="UTF-8"?>
<!--
  Ícono del logo Vocational Lab — versión clara (para fondos oscuros).
  Mismo path que logo-icono.svg pero con la "C" en blanco en vez
  de azul oscuro. La flecha naranja queda igual.
  Usado en el Footer y en el NavAula (que tienen fondos oscuros).
-->
<svg xmlns="http://www.w3.org/2000/svg" viewBox="-71 60 367 400">
  <path fill="#ffffff" d="M0,443.73l.03-45.407c23.216.636,45.683-4.407,66.324-14.637,36.23-18.152,63.593-50.904,74.253-90.112,10.187-37.467,4.874-77.408-15.454-110.56-6.952-11.393-15.189-21.809-25.037-30.712C72.82,127.121,37.263,113.652,0,114.496l.037-46.499c44.551-.826,87.825,14.16,122.067,42.496,13.748,11.427,25.844,24.486,35.722,39.444,8.994,13.102,16.167,27.094,21.57,42.023,12.435,34.36,14.355,70.023,6.359,105.724-8.974,40.066-30.991,76.227-62.228,102.842-22.961,19.111-50.003,32.569-79.197,39.003-14.634,3.128-29.245,4.514-44.329,4.2Z"/>
  <path fill="#d85527" d="M26.34,305.497l-.613-1.82c-.122-.361-.996-.54-1.611-.716l.476-1.582-19.161.152,10.251-10.602,13.716,1.059-.058-1.175-12.423-1.026,6.091-6.282,13.612,1.104-.034-1.185-12.454-1.038,6.18-6.275,13.336,1.094.131-1.185-12.437-1.034,3.919-3.942c3.487-3.508,12.645-.401,18.901-1.622L217.149,100.94c-3.31-1.789-6.564-2.322-9.947-2.602l-11.392-.355,15.203-7.816,29.993-15.686c3.798-1.847,7.134-3.708,11.428-5.274l-22.756,50.442-3.415,6.55-2.236-15.178c-.229-1.554-.973-3.126-1.887-4.554L59.04,275.068l.589,10.139c.36,6.203-.746,7.708-5.857,12.288l-1.477-13.103c-.048-.076-.922-.053-1.189.021l1.603,14.354-6.078,6.182-1.514-13.294-1.183.053,1.629,14.478-6.088,6.301-1.474-13.253c-.017-.073-.587-.473-.717-.338l-.494.515,1.634,14.233-9.718,10.161-.463-19.249-1.902.943Z"/>
</svg>
